<svg width="69" height="77" viewBox="0 0 69 77" fill="none" xmlns="http://www.w3.org/2000/svg">
<path d="M16.9092 23.2682C16.7683 22.9283 16.5678 22.6164 16.3171 22.3472L15.8303 22.6406C15.508 22.0553 15.0776 21.5365 14.562 21.1117L14.8935 20.742C14.7054 20.5539 14.3778 20.1539 13.8699 19.9526C13.5275 19.8166 13.1633 19.7439 12.7949 19.7381L12.7055 20.1263C12.0439 19.9315 11.3504 19.8694 10.6648 19.9434C10.6648 19.7802 10.6648 19.6184 10.6648 19.4566C9.87333 19.4015 9.09162 19.6573 8.48592 20.1697L8.69118 20.5644C8.07944 20.9007 7.54055 21.3551 7.10573 21.9012L6.77548 21.6157C6.59128 21.8077 6.19787 22.1419 6.00709 22.6537C5.87706 23.0022 5.81109 23.3712 5.81237 23.7431L6.15051 23.8129C5.97042 24.4832 5.92569 25.1828 6.01893 25.8706L5.5729 25.8627C5.55317 26.1259 5.46633 26.6377 5.64658 27.1521C5.76862 27.4999 5.95273 27.8226 6.18998 28.1047L6.69917 27.8337C7.02718 28.3896 7.45493 28.8802 7.96095 29.2809L7.54913 29.8072C7.7478 29.9822 8.10042 30.3624 8.61881 30.5308C8.96915 30.6454 9.3374 30.6954 9.7056 30.6782L9.7806 30.2217C10.2488 30.3551 10.7332 30.4229 11.22 30.423C11.4143 30.4226 11.6085 30.4117 11.8016 30.3901C11.8016 30.5532 11.8016 30.7164 11.8016 30.8795C12.0647 30.8966 12.5765 30.9808 13.091 30.7966C13.4378 30.672 13.7592 30.4857 14.0396 30.2467L13.7765 29.7612C14.3549 29.4389 14.8674 29.0104 15.2869 28.4981L15.6935 28.8928C15.8882 28.7139 16.3027 28.4047 16.5263 27.906C16.6779 27.5701 16.767 27.2094 16.7895 26.8416L16.2527 26.6929C16.4022 26.1989 16.478 25.6855 16.4777 25.1694C16.4773 24.9737 16.4664 24.7783 16.4448 24.5839L17.0553 24.5615C17.0566 24.2865 17.1171 23.7721 16.9092 23.2682Z" fill="#D1D3D4"/>
<path d="M64.139 52.628C63.9789 52.2393 63.7498 51.8827 63.4628 51.5755L62.9062 51.9097C62.5391 51.2399 62.0479 50.646 61.4589 50.1598L61.8365 49.7374C61.6234 49.523 61.2484 49.0651 60.6682 48.8362C60.2765 48.6816 59.8603 48.5987 59.4393 48.5915L59.338 49.0348C58.5816 48.8127 57.789 48.7416 57.0052 48.8257L57.0131 48.2691C56.1084 48.2071 55.2151 48.4996 54.5224 49.0848L54.7579 49.5309C54.0547 49.9185 53.436 50.4427 52.9383 51.0729L52.5593 50.7466C52.3501 50.965 51.9015 51.3492 51.6817 51.9307C51.535 52.3256 51.4606 52.7436 51.462 53.1648L51.8475 53.2451C51.7125 53.7502 51.6444 54.2708 51.6449 54.7937C51.6453 55.0639 51.6638 55.3338 51.7002 55.6015L51.1897 55.5923C51.1686 55.8949 51.0686 56.4778 51.2752 57.0659C51.4145 57.4632 51.625 57.8319 51.8962 58.154L52.4778 57.8448C52.8553 58.4786 53.3458 59.0378 53.9251 59.4947L53.454 60.0894C53.6816 60.2907 54.0843 60.7235 54.6763 60.9169C55.0767 61.0478 55.4976 61.1049 55.9184 61.0854L56.0039 60.5591C56.5388 60.7115 57.0923 60.789 57.6486 60.7893C57.8706 60.7893 58.0924 60.7765 58.313 60.7512C58.313 60.938 58.313 61.1248 58.313 61.3103C58.6143 61.3301 59.1985 61.4261 59.7853 61.2156C60.1817 61.0737 60.549 60.861 60.8695 60.588L60.5695 60.0328C61.2308 59.6633 61.8165 59.1723 62.2957 58.5855L62.7588 59.0394C62.9825 58.8355 63.4562 58.4803 63.7114 57.9119C63.8828 57.5273 63.9835 57.1151 64.0088 56.6949L63.3957 56.5251C63.5686 55.961 63.6573 55.3745 63.6588 54.7845C63.6581 54.5611 63.6453 54.338 63.6206 54.1161L64.318 54.0898C64.3075 53.7911 64.3759 53.2043 64.139 52.628Z" fill="#D1D3D4"/>
<path d="M67.5568 0H46.7091C45.9818 0 45.3921 0.589648 45.3921 1.31702V12.6939C45.3921 13.4213 45.9818 14.0109 46.7091 14.0109H67.5568C68.2842 14.0109 68.8739 13.4213 68.8739 12.6939V1.31702C68.8739 0.589648 68.2842 0 67.5568 0Z" fill="#0071F2"/>
<path opacity="0.4" d="M67.5568 0H46.7091C45.9818 0 45.3921 0.589648 45.3921 1.31702V12.6939C45.3921 13.4213 45.9818 14.0109 46.7091 14.0109H67.5568C68.2842 14.0109 68.8739 13.4213 68.8739 12.6939V1.31702C68.8739 0.589648 68.2842 0 67.5568 0Z" fill="white"/>
<path d="M68.8739 2.59323H45.3921V4.99307H68.8739V2.59323Z" fill="#2F2E41"/>
<path d="M65.5075 0.672302H63.7799C63.4616 0.672302 63.2036 0.93031 63.2036 1.24858C63.2036 1.56685 63.4616 1.82486 63.7799 1.82486H65.5075C65.8257 1.82486 66.0837 1.56685 66.0837 1.24858C66.0837 0.93031 65.8257 0.672302 65.5075 0.672302Z" fill="white"/>
<path d="M67.1641 1.68013C67.4424 1.68013 67.668 1.45452 67.668 1.17622C67.668 0.897912 67.4424 0.672302 67.1641 0.672302C66.8858 0.672302 66.6602 0.897912 66.6602 1.17622C66.6602 1.45452 66.8858 1.68013 67.1641 1.68013Z" fill="white"/>
<path d="M65.885 6.43248H64.3377C63.7774 6.43248 63.3232 6.88664 63.3232 7.44689V8.72969C63.3232 9.28994 63.7774 9.7441 64.3377 9.7441H65.885C66.4452 9.7441 66.8994 9.28994 66.8994 8.72969V7.44689C66.8994 6.88664 66.4452 6.43248 65.885 6.43248Z" fill="white"/>
<path d="M61.6549 11.2808H58.1038C57.8982 11.2808 57.7314 11.4472 57.7314 11.6525C57.7314 11.8578 57.8982 12.0242 58.1038 12.0242H61.6549C61.8606 12.0242 62.0273 11.8578 62.0273 11.6525C62.0273 11.4472 61.8606 11.2808 61.6549 11.2808Z" fill="white"/>
<path d="M66.8883 11.2808H63.3372C63.1316 11.2808 62.9648 11.4472 62.9648 11.6525C62.9648 11.8578 63.1316 12.0242 63.3372 12.0242H66.8883C67.094 12.0242 67.2607 11.8578 67.2607 11.6525C67.2607 11.4472 67.094 11.2808 66.8883 11.2808Z" fill="white"/>
<path opacity="0.2" d="M57.7318 57.6185C59.2861 57.6185 60.5462 56.3585 60.5462 54.8042C60.5462 53.2499 59.2861 51.9899 57.7318 51.9899C56.1775 51.9899 54.9175 53.2499 54.9175 54.8042C54.9175 56.3585 56.1775 57.6185 57.7318 57.6185Z" fill="black"/>
<path d="M49.9087 5.38777H25.6427C23.1045 5.38777 21.0469 7.44536 21.0469 9.98352V71.6899C21.0469 74.2281 23.1045 76.2857 25.6427 76.2857H49.9087C52.4469 76.2857 54.5045 74.2281 54.5045 71.6899V9.98352C54.5045 7.44536 52.4469 5.38777 49.9087 5.38777Z" fill="#0071F2"/>
<path opacity="0.2" d="M49.9087 5.38777H25.6427C23.1045 5.38777 21.0469 7.44536 21.0469 9.98352V71.6899C21.0469 74.2281 23.1045 76.2857 25.6427 76.2857H49.9087C52.4469 76.2857 54.5045 74.2281 54.5045 71.6899V9.98352C54.5045 7.44536 52.4469 5.38777 49.9087 5.38777Z" fill="white"/>
<path d="M54.8407 5.38777H25.1961C24.2623 5.38777 23.5054 6.14471 23.5054 7.07845V74.595C23.5054 75.5287 24.2623 76.2857 25.1961 76.2857H54.8407C55.7745 76.2857 56.5314 75.5287 56.5314 74.595V7.07845C56.5314 6.14471 55.7745 5.38777 54.8407 5.38777Z" fill="#2F2E41"/>
<path d="M55.5714 73.0688L24.2505 73.3819L24.7544 8.84283H55.5714V73.0688Z" fill="#0071F2"/>
<path d="M39.6986 27.2719C42.2477 27.2719 44.3141 25.2054 44.3141 22.6564C44.3141 20.1073 42.2477 18.0409 39.6986 18.0409C37.1495 18.0409 35.083 20.1073 35.083 22.6564C35.083 25.2054 37.1495 27.2719 39.6986 27.2719Z" fill="white"/>
<path d="M39.6742 22.3446C40.4932 22.3446 41.1571 21.6807 41.1571 20.8618C41.1571 20.0428 40.4932 19.379 39.6742 19.379C38.8553 19.379 38.1914 20.0428 38.1914 20.8618C38.1914 21.6807 38.8553 22.3446 39.6742 22.3446Z" fill="#0071F2"/>
<path d="M37.1623 25.0233C37.1623 25.0233 39.674 26.4114 42.2568 25.0233V24.0063C42.2569 23.8945 42.2346 23.7838 42.1912 23.6807C42.1478 23.5777 42.0842 23.4844 42.0042 23.4063C41.6845 23.1011 41.2619 22.927 40.82 22.9182C40.82 22.9182 39.5148 22.6774 38.2688 23.005C38.2127 23.0195 38.1585 23.0403 38.107 23.0669C37.8996 23.1717 37.7 23.2913 37.5097 23.4247C37.4013 23.5023 37.3131 23.6046 37.2522 23.7232C37.1914 23.8417 37.1596 23.973 37.1597 24.1063L37.1623 25.0233Z" fill="#0071F2"/>
<path d="M49.7737 30.5164H29.4694C28.8132 30.5164 28.2812 31.0483 28.2812 31.7045C28.2812 32.3606 28.8132 32.8925 29.4694 32.8925H49.7737C50.4298 32.8925 50.9618 32.3606 50.9618 31.7045C50.9618 31.0483 50.4298 30.5164 49.7737 30.5164Z" fill="white"/>
<path d="M40.9781 32.0321H36.0902C36.0029 32.0321 35.9193 31.9974 35.8576 31.9357C35.7959 31.874 35.7612 31.7904 35.7612 31.7031C35.7612 31.6159 35.7959 31.5322 35.8576 31.4705C35.9193 31.4089 36.0029 31.3742 36.0902 31.3742H40.9781C41.0653 31.3742 41.149 31.4089 41.2107 31.4705C41.2724 31.5322 41.307 31.6159 41.307 31.7031C41.307 31.7904 41.2724 31.874 41.2107 31.9357C41.149 31.9974 41.0653 32.0321 40.9781 32.0321V32.0321Z" fill="#0071F2"/>
<path d="M46.7584 32.0189H41.8704C41.7832 32.0189 41.6995 31.9842 41.6378 31.9225C41.5762 31.8609 41.5415 31.7772 41.5415 31.69C41.5415 31.6027 41.5762 31.5191 41.6378 31.4574C41.6995 31.3957 41.7832 31.361 41.8704 31.361H46.7584C46.8456 31.361 46.9293 31.3957 46.991 31.4574C47.0526 31.5191 47.0873 31.6027 47.0873 31.69C47.0873 31.7772 47.0526 31.8609 46.991 31.9225C46.9293 31.9842 46.8456 32.0189 46.7584 32.0189Z" fill="#0071F2"/>
<g opacity="0.2">
<path opacity="0.2" d="M40.9781 32.032H36.0902C36.0029 32.032 35.9193 31.9974 35.8576 31.9357C35.7959 31.874 35.7612 31.7904 35.7612 31.7031C35.7612 31.6159 35.7959 31.5322 35.8576 31.4705C35.9193 31.4088 36.0029 31.3742 36.0902 31.3742H40.9781C41.0653 31.3742 41.149 31.4088 41.2107 31.4705C41.2724 31.5322 41.307 31.6159 41.307 31.7031C41.307 31.7904 41.2724 31.874 41.2107 31.9357C41.149 31.9974 41.0653 32.032 40.9781 32.032V32.032Z" fill="white"/>
<path opacity="0.2" d="M46.7584 32.0189H41.8704C41.7832 32.0189 41.6995 31.9842 41.6378 31.9225C41.5762 31.8609 41.5415 31.7772 41.5415 31.69C41.5415 31.6027 41.5762 31.5191 41.6378 31.4574C41.6995 31.3957 41.7832 31.361 41.8704 31.361H46.7584C46.8456 31.361 46.9293 31.3957 46.991 31.4574C47.0526 31.5191 47.0873 31.6027 47.0873 31.69C47.0873 31.7772 47.0526 31.8609 46.991 31.9225C46.9293 31.9842 46.8456 32.0189 46.7584 32.0189Z" fill="white"/>
</g>
<path d="M49.7737 34.4885H29.4694C28.8132 34.4885 28.2812 35.0204 28.2812 35.6765C28.2812 36.3327 28.8132 36.8646 29.4694 36.8646H49.7737C50.4298 36.8646 50.9618 36.3327 50.9618 35.6765C50.9618 35.0204 50.4298 34.4885 49.7737 34.4885Z" fill="white"/>
<path d="M35.0694 36.1029C35.3048 36.1029 35.4957 35.912 35.4957 35.6766C35.4957 35.4411 35.3048 35.2503 35.0694 35.2503C34.8339 35.2503 34.6431 35.4411 34.6431 35.6766C34.6431 35.912 34.8339 36.1029 35.0694 36.1029Z" fill="#0071F2"/>
<path d="M36.4771 36.1029C36.7125 36.1029 36.9034 35.912 36.9034 35.6766C36.9034 35.4411 36.7125 35.2503 36.4771 35.2503C36.2416 35.2503 36.0508 35.4411 36.0508 35.6766C36.0508 35.912 36.2416 36.1029 36.4771 36.1029Z" fill="#0071F2"/>
<path d="M37.9727 36.1029C38.2081 36.1029 38.399 35.912 38.399 35.6766C38.399 35.4411 38.2081 35.2503 37.9727 35.2503C37.7372 35.2503 37.5464 35.4411 37.5464 35.6766C37.5464 35.912 37.7372 36.1029 37.9727 36.1029Z" fill="#0071F2"/>
<path d="M39.4693 36.1029C39.7047 36.1029 39.8956 35.912 39.8956 35.6766C39.8956 35.4411 39.7047 35.2503 39.4693 35.2503C39.2338 35.2503 39.043 35.4411 39.043 35.6766C39.043 35.912 39.2338 36.1029 39.4693 36.1029Z" fill="#0071F2"/>
<path d="M40.8223 36.1029C41.0577 36.1029 41.2486 35.912 41.2486 35.6766C41.2486 35.4411 41.0577 35.2503 40.8223 35.2503C40.5869 35.2503 40.396 35.4411 40.396 35.6766C40.396 35.912 40.5869 36.1029 40.8223 36.1029Z" fill="#0071F2"/>
<path d="M42.2603 36.1029C42.4957 36.1029 42.6866 35.912 42.6866 35.6766C42.6866 35.4411 42.4957 35.2503 42.2603 35.2503C42.0248 35.2503 41.834 35.4411 41.834 35.6766C41.834 35.912 42.0248 36.1029 42.2603 36.1029Z" fill="#0071F2"/>
<path d="M43.6685 36.1029C43.9039 36.1029 44.0948 35.912 44.0948 35.6766C44.0948 35.4411 43.9039 35.2503 43.6685 35.2503C43.433 35.2503 43.2422 35.4411 43.2422 35.6766C43.2422 35.912 43.433 36.1029 43.6685 36.1029Z" fill="#0071F2"/>
<path d="M45.1641 36.1029C45.3995 36.1029 45.5904 35.912 45.5904 35.6766C45.5904 35.4411 45.3995 35.2503 45.1641 35.2503C44.9287 35.2503 44.7378 35.4411 44.7378 35.6766C44.7378 35.912 44.9287 36.1029 45.1641 36.1029Z" fill="#0071F2"/>
<path d="M46.6612 36.1029C46.8966 36.1029 47.0875 35.912 47.0875 35.6766C47.0875 35.4411 46.8966 35.2503 46.6612 35.2503C46.4257 35.2503 46.2349 35.4411 46.2349 35.6766C46.2349 35.912 46.4257 36.1029 46.6612 36.1029Z" fill="#0071F2"/>
<g opacity="0.2">
<path opacity="0.2" d="M35.0694 36.1029C35.3048 36.1029 35.4957 35.912 35.4957 35.6766C35.4957 35.4411 35.3048 35.2503 35.0694 35.2503C34.8339 35.2503 34.6431 35.4411 34.6431 35.6766C34.6431 35.912 34.8339 36.1029 35.0694 36.1029Z" fill="white"/>
<path opacity="0.2" d="M36.4771 36.1029C36.7125 36.1029 36.9034 35.912 36.9034 35.6766C36.9034 35.4411 36.7125 35.2503 36.4771 35.2503C36.2416 35.2503 36.0508 35.4411 36.0508 35.6766C36.0508 35.912 36.2416 36.1029 36.4771 36.1029Z" fill="white"/>
<path opacity="0.2" d="M37.9727 36.1029C38.2081 36.1029 38.399 35.912 38.399 35.6766C38.399 35.4411 38.2081 35.2503 37.9727 35.2503C37.7372 35.2503 37.5464 35.4411 37.5464 35.6766C37.5464 35.912 37.7372 36.1029 37.9727 36.1029Z" fill="white"/>
<path opacity="0.2" d="M39.4693 36.1029C39.7047 36.1029 39.8956 35.912 39.8956 35.6766C39.8956 35.4411 39.7047 35.2503 39.4693 35.2503C39.2338 35.2503 39.043 35.4411 39.043 35.6766C39.043 35.912 39.2338 36.1029 39.4693 36.1029Z" fill="white"/>
<path opacity="0.2" d="M40.8223 36.1029C41.0577 36.1029 41.2486 35.912 41.2486 35.6766C41.2486 35.4411 41.0577 35.2503 40.8223 35.2503C40.5869 35.2503 40.396 35.4411 40.396 35.6766C40.396 35.912 40.5869 36.1029 40.8223 36.1029Z" fill="white"/>
<path opacity="0.2" d="M42.2603 36.1029C42.4957 36.1029 42.6866 35.912 42.6866 35.6766C42.6866 35.4411 42.4957 35.2503 42.2603 35.2503C42.0248 35.2503 41.834 35.4411 41.834 35.6766C41.834 35.912 42.0248 36.1029 42.2603 36.1029Z" fill="white"/>
<path opacity="0.2" d="M43.6685 36.1029C43.9039 36.1029 44.0948 35.912 44.0948 35.6766C44.0948 35.4411 43.9039 35.2503 43.6685 35.2503C43.433 35.2503 43.2422 35.4411 43.2422 35.6766C43.2422 35.912 43.433 36.1029 43.6685 36.1029Z" fill="white"/>
<path opacity="0.2" d="M45.1626 36.1029C45.3981 36.1029 45.5889 35.912 45.5889 35.6766C45.5889 35.4411 45.3981 35.2503 45.1626 35.2503C44.9272 35.2503 44.7363 35.4411 44.7363 35.6766C44.7363 35.912 44.9272 36.1029 45.1626 36.1029Z" fill="white"/>
<path opacity="0.2" d="M46.6612 36.1029C46.8966 36.1029 47.0875 35.912 47.0875 35.6766C47.0875 35.4411 46.8966 35.2503 46.6612 35.2503C46.4257 35.2503 46.2349 35.4411 46.2349 35.6766C46.2349 35.912 46.4257 36.1029 46.6612 36.1029Z" fill="white"/>
</g>
<path d="M43.2979 39.3368H35.6864C35.0004 39.3368 34.4443 39.8929 34.4443 40.5789C34.4443 41.2648 35.0004 41.8209 35.6864 41.8209H43.2979C43.9838 41.8209 44.5399 41.2648 44.5399 40.5789C44.5399 39.8929 43.9838 39.3368 43.2979 39.3368Z" fill="#2F2E41"/>
<path d="M44.5228 54.1924C44.5321 54.0609 44.5373 53.9293 44.5373 53.7977C44.5152 52.386 43.9389 51.0395 42.9327 50.049C41.9266 49.0584 40.5712 48.5033 39.1593 48.5033C37.7473 48.5033 36.392 49.0584 35.3858 50.049C34.3797 51.0395 33.8033 52.386 33.7812 53.7977C33.7812 53.9214 33.7813 54.0438 33.7944 54.1661L35.1483 54.1595C35.1378 54.0398 35.1312 53.9201 35.1312 53.7977C35.1312 52.7296 35.5555 51.7052 36.3108 50.95C37.0661 50.1947 38.0905 49.7704 39.1586 49.7704C40.2268 49.7704 41.2512 50.1947 42.0065 50.95C42.7617 51.7052 43.1861 52.7296 43.1861 53.7977C43.1861 53.9293 43.1861 54.0477 43.169 54.1714L44.5228 54.1924Z" fill="white"/>
<path d="M44.8336 64.2233C43.014 64.3891 41.018 64.4865 38.8681 64.4865C36.9695 64.476 35.1946 64.3799 33.5592 64.2233C33.3326 64.2209 33.1157 64.1308 32.9539 63.972C32.8742 63.8927 32.8109 63.7984 32.7678 63.6945C32.7247 63.5907 32.7025 63.4793 32.7026 63.3668V54.8042H45.6902V63.3668C45.6898 63.5939 45.5995 63.8115 45.4389 63.9721C45.2784 64.1326 45.0607 64.223 44.8336 64.2233V64.2233Z" fill="white"/>
<path d="M40.6242 58.1303C40.6562 58.441 40.589 58.7538 40.4323 59.0239C40.2756 59.2941 40.0374 59.5077 39.7518 59.6341V62.134C39.7518 62.2929 39.6888 62.4453 39.5766 62.5577C39.4643 62.6702 39.3121 62.7336 39.1532 62.7339V62.7339C38.994 62.7339 38.8414 62.6707 38.7289 62.5582C38.6164 62.4457 38.5532 62.2931 38.5532 62.134V59.6341C38.3152 59.529 38.1092 59.3629 37.9558 59.1527C37.8024 58.9425 37.7072 58.6956 37.6797 58.4369C37.6522 58.1781 37.6933 57.9167 37.7991 57.679C37.9048 57.4412 38.0713 57.2355 38.2818 57.0826C38.4924 56.9297 38.7395 56.8351 38.9983 56.8081C39.2571 56.7812 39.5184 56.8229 39.7559 56.9292C39.9935 57.0354 40.1988 57.2024 40.3512 57.4132C40.5036 57.6241 40.5978 57.8714 40.6242 58.1303V58.1303Z" fill="#0071F2"/>
<path d="M0 43.905C0 43.905 9.71401 41.8788 14.3598 36.1042C14.3598 36.1042 20.2727 42.3959 28.4789 43.905V56.5752C28.4789 56.5752 29.8065 67.9402 14.2388 76.2857C14.2388 76.2857 0.299986 70.2085 0 56.1949V43.905Z" fill="#E6E7E8"/>
<path d="M0.939941 44.7168C0.939941 44.7168 10.0119 42.8208 14.3512 37.4265C14.3512 37.4265 19.8772 43.3024 27.5361 44.7115V56.5449C27.5361 56.5449 28.7755 67.1613 14.238 74.9568C14.238 74.9568 1.22019 69.2822 0.939941 56.1949V44.7168Z" fill="#0071F2"/>
<path d="M4.95215 56.8028C4.95215 56.8028 9.48878 59.1013 9.70456 63.2774L13.0176 63.7813C13.0176 63.7813 17.9134 53.7727 25.6183 50.5322L24.8973 49.1651C24.8973 49.1651 19.4251 49.2362 12.0808 57.733C12.0808 57.733 12.0808 55.4292 8.26515 53.4122L4.95215 56.8028Z" fill="#2F2E41"/>
<path opacity="0.2" d="M11.2235 27.9731C12.7778 27.9731 14.0379 26.7131 14.0379 25.1588C14.0379 23.6046 12.7778 22.3446 11.2235 22.3446C9.6692 22.3446 8.40918 23.6046 8.40918 25.1588C8.40918 26.7131 9.6692 27.9731 11.2235 27.9731Z" fill="black"/>
<path d="M49.2583 31.5847C49.4342 31.5847 49.5768 31.4422 49.5768 31.2663C49.5768 31.0905 49.4342 30.9479 49.2583 30.9479C49.0825 30.9479 48.9399 31.0905 48.9399 31.2663C48.9399 31.4422 49.0825 31.5847 49.2583 31.5847Z" fill="#2F2E41"/>
<path d="M48.7183 32.1636C48.888 32.2487 49.0752 32.293 49.265 32.293C49.4548 32.293 49.642 32.2487 49.8117 32.1636V31.9452C49.8119 31.9208 49.8073 31.8966 49.798 31.874C49.7887 31.8514 49.775 31.8309 49.7577 31.8137C49.6891 31.7484 49.5985 31.7113 49.5038 31.7097C49.3219 31.68 49.1359 31.6862 48.9564 31.7281C48.9442 31.7314 48.9323 31.7358 48.9209 31.7413C48.8752 31.7634 48.8313 31.7889 48.7894 31.8176C48.7661 31.8345 48.7471 31.8566 48.7341 31.8823C48.7211 31.9079 48.7143 31.9362 48.7144 31.965L48.7183 32.1636Z" fill="#2F2E41"/>
</svg>
